<?xml version="1.0" ?><svg id="object" viewBox="0 0 32 32" xmlns="http://www.w3.org/2000/svg"><defs><style>.cls-1{fill:#fff;}.cls-2{fill:#6d6daa;}.cls-3{fill:#ffc661;}.cls-4{fill:#97c1ff;}.cls-5{fill:#eef5fd;}.cls-6{fill:#798bc6;}</style></defs><title/><path class="cls-1" d="M16,16h0A10,10,0,0,1,26,26v2a2,2,0,0,1-2,2H8a2,2,0,0,1-2-2V26A10,10,0,0,1,16,16Z"/><path class="cls-2" d="M24,31H8a3,3,0,0,1-3-3V26a11,11,0,0,1,22,0v2A3,3,0,0,1,24,31ZM16,17a9,9,0,0,0-9,9v2a1,1,0,0,0,1,1H24a1,1,0,0,0,1-1V26A9,9,0,0,0,16,17Z"/><path class="cls-3" d="M16,16h0A10,10,0,0,1,26,26v2a2,2,0,0,1-2,2H8a2,2,0,0,1-2-2V26A10,10,0,0,1,16,16Z"/><path class="cls-2" d="M24,31H8a3,3,0,0,1-3-3V26a11,11,0,0,1,22,0v2A3,3,0,0,1,24,31ZM16,17a9,9,0,0,0-9,9v2a1,1,0,0,0,1,1H24a1,1,0,0,0,1-1V26A9,9,0,0,0,16,17Z"/><circle class="cls-4" cx="16" cy="7" r="5"/><path class="cls-2" d="M16,13a6,6,0,1,1,6-6A6,6,0,0,1,16,13ZM16,3a4,4,0,1,0,4,4A4,4,0,0,0,16,3Z"/><path class="cls-5" d="M16,21l4.11-4.11a9.91,9.91,0,0,0-8.22,0Z"/><path class="cls-2" d="M16,22a1,1,0,0,1-.71-.29L11.18,17.6a1,1,0,0,1-.27-.89,1,1,0,0,1,.57-.73,11,11,0,0,1,9,0,1,1,0,0,1,.57.73,1,1,0,0,1-.27.89l-4.11,4.11A1,1,0,0,1,16,22Zm-2.29-4.7L16,19.59l2.29-2.29A9.11,9.11,0,0,0,13.71,17.3Z"/><polygon class="cls-6" points="16 21 13.5 27 16 30 18.5 27 16 21"/><path class="cls-2" d="M16,31a1,1,0,0,1-.77-.36l-2.5-3a1,1,0,0,1-.15-1l2.5-6a1,1,0,0,1,1.84,0l2.5,6a1,1,0,0,1-.15,1l-2.5,3A1,1,0,0,1,16,31Zm-1.34-4.17L16,28.44l1.34-1.61L16,23.6Z"/></svg>