<?xml version="1.0" ?><svg id="Layer_5" style="enable-background:new 0 0 64 64;" version="1.1" viewBox="0 0 64 64" xml:space="preserve" xmlns="http://www.w3.org/2000/svg" xmlns:xlink="http://www.w3.org/1999/xlink"><style type="text/css">
	.st0{fill:#5F605A;}
	.st1{fill:#FFFFFF;}
	.st2{fill:#DAD4D4;}
	.st3{fill:#A29292;}
	.st4{fill:#9E7059;}
	.st5{fill:#FFD5C2;}
	.st6{fill:#EE2D02;}
	.st7{fill:#FFA180;}
	.st8{fill:#DB2007;}
	.st9{fill:#BFA599;}
	.st10{fill:#995B3F;}
	.st11{fill:#472B3C;}
	.st12{fill:#0DCEBB;}
	.st13{fill:#02998E;}
	.st14{fill:#EAEAEA;}
	.st15{fill:#FFCA3A;}
	.st16{fill:#F9B223;}
	.st17{fill:#F49E06;}
	.st18{fill:#828282;}
	.st19{fill:#6E7070;}
	.st20{fill:#726C6C;}
	.st21{fill:#D8D4D0;}
	.st22{fill:#46D3C8;}
	.st23{fill:#02A094;}
	.st24{fill:#41BFB0;}
	.st25{fill:#46F7E6;}
	.st26{fill:#F9E4E1;}
	.st27{fill:#02AF9E;}
	.st28{fill:#6A4C93;}
	.st29{fill:#5C3D99;}
	.st30{fill:#E2886D;}
	.st31{fill:#FFDCD2;}
	.st32{fill:#8AC926;}
	.st33{fill:#DFDAD4;}
	.st34{fill:#FF9700;}
	.st35{fill:#B7B1AB;}
	.st36{fill:#B9DEEF;}
	.st37{fill:#9AC2D8;}
	.st38{fill:#73BDE5;}
	.st39{fill:#999999;}
	.st40{fill:#F7F7F7;}
	.st41{fill:#7C4D4D;}
	.st42{fill:#897C7C;}
	.st43{fill:#B51F1F;}
	.st44{fill:#991D1D;}
	.st45{fill:#D7F9F5;}
	.st46{fill:#EA940A;}
	.st47{fill:#607F0A;}
	.st48{fill:#C92206;}
	.st49{fill:none;stroke:#A53068;stroke-width:2;stroke-linecap:round;stroke-linejoin:round;stroke-miterlimit:10;}
	.st50{fill:#B32202;}
	.st51{fill:#727272;}
	.st52{fill:#FCD1C0;}
	.st53{fill:#C6BDBD;}
	.st54{fill:#4C308E;}
	.st55{fill:#8E7979;}
	.st56{fill:#7F6F6F;}
	.st57{fill:#F4EDED;}
	.st58{fill:#E75502;}
	.st59{fill:#D9A42A;}
	.st60{fill:#EDEDEB;}
	.st61{fill:#7AA822;}
	.st62{fill:#F26A07;}
	.st63{fill:#E25B00;}
	.st64{fill:#7D5A34;}
	.st65{fill:#774D23;}
	.st66{fill:#F9DEC5;}
	.st67{fill:#E8F7F9;}
	.st68{fill:#EFE8F9;}
	.st69{fill:#F9B7B7;}
	.st70{fill:#C25B3C;}
	.st71{fill:#E0907E;}
	.st72{fill:#EAE7E5;}
	.st73{fill:none;stroke:#472B3C;stroke-width:2;stroke-linecap:round;stroke-linejoin:round;stroke-miterlimit:10;}
	.st74{fill:#00B2A9;}
	.st75{fill:#2DE0CA;}
	.st76{fill:#665D5D;}
	.st77{fill:#E5E2DF;}
	.st78{fill:#048777;}
	.st79{fill:#FFF2DC;}
	.st80{fill:#F9B9A5;}
	.st81{fill:#07AA96;}
	.st82{fill:#FF595E;}
	.st83{fill:#8E8282;}
	.st84{fill:#474744;}
	.st85{fill:#E2E0E1;}
	.st86{fill:#F7F1E2;}
</style><g><g><g><path class="st4" d="M21,13.91v5.59c0-0.83-0.67-1.5-1.5-1.5S18,18.67,18,19.5V13c0-6.6,5.4-12,12-12h4c6.6,0,12,5.4,12,12v6.5     c0-0.83-0.67-1.5-1.5-1.5S43,18.67,43,19.5v-5.59C34,13.82,28,8,28,8C26,12,21,13.91,21,13.91z"/></g></g><path class="st10" d="M46,19.5V13c0-6.6-5.4-12-12-12h-2.936c7.625,2.994,11.881,9.263,13.814,17.054   C45.524,18.222,46,18.802,46,19.5z"/><path class="st9" d="M26.1,8.38c-0.37,0.01-0.75,0.02-1.14,0.02c-2.08,0-4.04-0.23-5.75-0.63C19.3,7.58,19.4,7.39,19.5,7.2   C21.43,7.9,23.69,8.32,26.1,8.38z"/><path class="st9" d="M38.763,5.993c-2.035,0.795-4.447,1.289-7.055,1.354c0.38,0.01,0.76,0.02,1.15,0.02   c2.183,0,4.224-0.252,5.989-0.687C38.832,6.449,38.801,6.22,38.763,5.993z"/><path class="st9" d="M42.95,5.02c-0.81,0.53-1.84,1-3.04,1.37c-0.05-0.28-0.11-0.56-0.13-0.83c0.87-0.41,1.65-0.88,2.32-1.4   C42.39,4.44,42.68,4.72,42.95,5.02z"/><path class="st10" d="M30,4.04V9.6C28.71,8.69,28,8,28,8V4.04c0-0.55,0.45-1,1-1S30,3.49,30,4.04z"/><path class="st5" d="M40.27,41.29c0.21,0.5,0.55,0.91,0.96,1.21C39.27,45.8,35.86,48,32,48c-3.02,0-5.78-1.35-7.77-3.52   c-0.55-0.6-1.04-1.26-1.46-1.98c0.41-0.3,0.75-0.71,0.96-1.21l2.02-5.61C26.46,35.89,27.22,36,28,36h8c0.78,0,1.54-0.11,2.25-0.32   L40.27,41.29z"/><path class="st5" d="M21,23l0.05,0.24c-0.6,0.33-1.01,0.94-1.05,1.66c-0.16,0.07-0.32,0.1-0.5,0.1c-0.83,0-1.5-0.67-1.5-1.5v-4   c0-0.16,0.03-0.32,0.09-0.47c0.18-0.6,0.74-1.03,1.41-1.03c0.83,0,1.5,0.67,1.5,1.5V23z"/><path class="st5" d="M42,23l-10-1l-10,1c-0.34,0-0.67,0.09-0.95,0.24L21,23v-3.5v-5.59c0,0,5-1.91,7-5.91c0,0,6,5.82,15,5.91v5.59   c0-0.83,0.67-1.5,1.5-1.5c0.67,0,1.23,0.43,1.41,1.03C45.97,19.18,46,19.34,46,19.5v4c0,0.83-0.67,1.5-1.5,1.5   c-0.18,0-0.34-0.03-0.5-0.1C43.94,23.84,43.07,23,42,23z"/><path class="st7" d="M43,13.91v3c-5.18-0.05-9.37-2.01-11.99-3.65c-1.66-1.04-3.77-0.74-5.2,0.59c-2.2,2.06-4.81,3.06-4.81,3.06v-3   c0,0,5-1.91,7-5.91C28,8,34,13.82,43,13.91z"/><path class="st12" d="M47,63H17H6v-9.27c0-8.6,6.87-9.74,15.24-10.64c0.56-0.06,1.09-0.26,1.53-0.59c0.42,0.72,0.91,1.38,1.46,1.98   C26.22,46.65,28.98,48,32,48c3.86,0,7.27-2.2,9.23-5.5c0.44,0.33,0.97,0.53,1.53,0.59C51.13,43.99,58,45.13,58,53.73V63H47z"/><path class="st7" d="M40.27,41.29l-0.853-2.37c0.001,0,0.002,0,0.003,0l-1.17-3.24C37.54,35.89,36.78,36,36,36h-7.542H28   c-0.78,0-1.54-0.11-2.25-0.32l-1.12,3.11c0.79,0.14,1.61,0.21,2.45,0.21h4.033c0.441,0,0.868,0.184,1.16,0.514   c1.891,2.144,3.409,4.584,4.606,7.207c1.77-0.967,3.281-2.421,4.35-4.222C40.82,42.2,40.48,41.79,40.27,41.29z"/><path class="st13" d="M42.76,43.09c-0.56-0.06-1.09-0.26-1.53-0.59c-1.069,1.801-2.58,3.255-4.35,4.222   C39.212,51.834,40.377,57.58,40.901,63H47h11v-9.27C58,45.13,51.13,43.99,42.76,43.09z"/><path class="st1" d="M25.75,35.68C22.43,34.71,20,31.64,20,28v-3c0-0.03,0-0.07,0-0.1c0.04-0.72,0.45-1.33,1.05-1.66   C21.33,23.09,21.66,23,22,23l10-1l10,1c1.07,0,1.94,0.84,2,1.9c0,0.03,0,0.07,0,0.1v3c0,3.64-2.43,6.71-5.75,7.68   C37.54,35.89,36.78,36,36,36h-8C27.22,36,26.46,35.89,25.75,35.68z"/><path class="st2" d="M44,24.9V28c0,3.64-2.43,6.71-5.75,7.68C37.54,35.89,36.78,36,36,36h-4V22l10,1C43.07,23,43.94,23.84,44,24.9z   "/><path class="st3" d="M35.335,36H36c0.78,0,1.54-0.11,2.25-0.32C41.57,34.71,44,31.64,44,28v-3c0-0.03,0-0.07,0-0.1   c-0.017-0.308-0.11-0.594-0.25-0.85C42.875,29.429,39.721,33.982,35.335,36z"/><g><path class="st11" d="M42.859,42.095c-0.75-0.075-1.389-0.532-1.648-1.144l-1.683-4.673C42.742,34.903,45,31.711,45,28v-2.051    c1.14-0.232,2-1.242,2-2.449v-2v-2V13c0-7.168-5.832-13-13-13h-4c-7.168,0-13,5.832-13,13v6.5v2v2c0,1.207,0.86,2.217,2,2.449V28    c0,3.711,2.258,6.903,5.472,8.278l-1.663,4.623c-0.279,0.661-0.918,1.119-1.675,1.194C13.571,42.909,5,43.831,5,53.73V63    c0,0.552,0.448,1,1,1h52c0.552,0,1-0.448,1-1v-9.27C59,43.831,50.429,42.909,42.859,42.095z M19,23.5v-2v-2    c0-0.276,0.224-0.5,0.5-0.5s0.5,0.224,0.5,0.5v3.28c-0.341,0.307-0.613,0.686-0.785,1.12C19.088,23.809,19,23.668,19,23.5z     M22,19.5v-4.933c1.328-0.612,4.374-2.252,6.248-5.036c1.976,1.589,6.937,4.975,13.752,5.346V19.5v2.495l-9.9-0.99    c-0.066-0.007-0.133-0.007-0.199,0L22,22V19.5z M45,23.5c0,0.167-0.088,0.308-0.214,0.399c-0.173-0.44-0.447-0.822-0.786-1.131    V19.5c0-0.276,0.224-0.5,0.5-0.5s0.5,0.224,0.5,0.5v2V23.5z M30,2h4c6.065,0,11,4.935,11,11v4.051    C44.838,17.018,44.671,17,44.5,17s-0.338,0.018-0.5,0.051v-3.141c0-0.548-0.441-0.995-0.99-1C35.638,12.835,30.299,8.669,29,7.553    V4c0-0.552-0.448-1-1-1s-1,0.448-1,1v3.74c-1.862,3.467-6.312,5.218-6.358,5.236C20.256,13.124,20,13.496,20,13.909v3.141    C19.838,17.018,19.671,17,19.5,17s-0.338,0.018-0.5,0.051V13C19,6.935,23.935,2,30,2z M21,28v-3c0-0.551,0.449-1,1.1-1.005    L32,23.005L42,24c0.551,0,1,0.449,1,1v3c0,3.86-3.14,7-7,7h-8C24.14,35,21,31.86,21,28z M28,37h8c0.55,0,1.085-0.057,1.608-0.152    l1.741,4.831c0.148,0.351,0.347,0.671,0.583,0.958C38.038,45.374,35.133,47,32,47c-2.645,0-5.143-1.135-7.033-3.195    c-0.335-0.366-0.632-0.76-0.911-1.166c0.247-0.3,0.457-0.636,0.615-1.01l1.721-4.781C26.915,36.943,27.451,37,28,37z M57,62h-9v-6    c0-0.552-0.448-1-1-1s-1,0.448-1,1v6H18v-6c0-0.552-0.448-1-1-1s-1,0.448-1,1v6H7v-8.27c0-7.539,5.681-8.713,14.34-9.645    c0.384-0.038,0.753-0.131,1.101-0.269c0.323,0.466,0.667,0.919,1.053,1.34C25.767,47.635,28.788,49,32,49    c3.783,0,7.278-1.933,9.546-5.188c0.349,0.139,0.72,0.234,1.107,0.272C51.319,45.017,57,46.191,57,53.73V62z"/><path class="st11" d="M23.11,27.994L32,27.006l8.89,0.987C40.927,27.998,40.964,28,41.001,28c0.502,0,0.936-0.378,0.992-0.89    c0.061-0.549-0.334-1.043-0.883-1.104l-9-1c-0.073-0.009-0.147-0.009-0.221,0l-9,1c-0.549,0.061-0.944,0.555-0.883,1.104    C22.067,27.66,22.565,28.053,23.11,27.994z"/><path class="st11" d="M40.89,31.994C40.927,31.998,40.964,32,41.001,32c0.502,0,0.936-0.378,0.992-0.89    c0.061-0.549-0.334-1.043-0.883-1.104l-9-1c-0.073-0.009-0.147-0.009-0.221,0l-9,1c-0.549,0.061-0.944,0.555-0.883,1.104    c0.061,0.549,0.559,0.947,1.104,0.883L32,31.006L40.89,31.994z"/><path class="st11" d="M28.553,17.105c-1.496,0.75-3.066,0.019-3.11-0.002c-0.493-0.242-1.09-0.042-1.337,0.45    c-0.247,0.494-0.047,1.095,0.447,1.342c0.066,0.033,1.122,0.549,2.528,0.549c0.725,0,1.543-0.137,2.367-0.549    c0.494-0.247,0.694-0.848,0.447-1.342C29.647,17.059,29.048,16.857,28.553,17.105z"/><path class="st11" d="M34.553,18.895c0.066,0.033,1.122,0.549,2.528,0.549c0.725,0,1.543-0.137,2.367-0.549    c0.494-0.247,0.694-0.848,0.447-1.342c-0.247-0.494-0.846-0.696-1.342-0.447c-1.496,0.75-3.066,0.019-3.11-0.002    c-0.492-0.242-1.09-0.042-1.337,0.45C33.858,18.047,34.059,18.647,34.553,18.895z"/></g></g></svg>